<svg xmlns="http://www.w3.org/2000/svg" width="1052.338" height="136.786" viewBox="0 0 1052.338 136.786"><defs><style>.a{fill:none;stroke:#000;stroke-miterlimit:10;stroke-width:4px;}</style></defs><g transform="translate(0 -0.001)"><g transform="translate(0 0.171)"><g transform="translate(8.545 13.431)"><path d="M349.65,3791.092a61.508,61.508,0,1,0,61.508,61.508A61.577,61.577,0,0,0,349.65,3791.092Zm0,121.5a59.995,59.995,0,1,1,59.995-59.995A60.062,60.062,0,0,1,349.65,3912.594Z" transform="translate(-288.143 -3791.092)"/></g><g transform="translate(43.791 92.426)"><path d="M433.605,4000.1a43.066,43.066,0,0,1-51.083,1.028.757.757,0,0,0-.874,1.235,44.579,44.579,0,0,0,52.88-1.064.757.757,0,1,0-.923-1.2Z" transform="translate(-381.329 -3999.945)"/></g><g transform="translate(80.599 56.5)"><path d="M487.026,3904.959a9.427,9.427,0,0,0-8.289,4.933.756.756,0,1,0,1.329.722,7.918,7.918,0,0,1,13.889-.054.756.756,0,1,0,1.324-.732A9.437,9.437,0,0,0,487.026,3904.959Z" transform="translate(-478.645 -3904.959)"/></g><g transform="translate(42.776 56.878)"><path d="M380.066,3911.614a7.918,7.918,0,0,1,13.889-.054.756.756,0,1,0,1.324-.732,9.43,9.43,0,0,0-16.543.065.756.756,0,1,0,1.329.722Z" transform="translate(-378.645 -3905.959)"/></g><g transform="translate(0 39.788)"><path d="M274.889,3867.912l-6.008-7.136-.515,1.079,1.862,2.161c.944,1.093,1.635,1.938,2.509,2.882-1.284-.085-2.374-.091-3.818-.137l-2.852-.087-.515,1.079,9.327.181Z" transform="translate(-265.552 -3860.776)"/></g><g transform="translate(5.118 32.47)"><path d="M288.982,3845.816l-.79-.51-2.273,3.521-2.37-1.53,1.839-2.848-.79-.51-1.839,2.848-2.282-1.473,2.179-3.375-.79-.51-2.783,4.311,7.022,4.534Z" transform="translate(-279.082 -3841.429)"/></g><g transform="translate(11.473 24.757)"><path d="M297.44,3828.744a4.237,4.237,0,0,0,6.137-.577,6.151,6.151,0,0,0,1.279-2.5l-2.448-2.067-.7.834,1.924,1.624a4.443,4.443,0,0,1-.832,1.454,3.291,3.291,0,0,1-5.007-4.271,5.5,5.5,0,0,1,2.1-1.511l-.816-.689a5.442,5.442,0,0,0-2.055,1.517A4.264,4.264,0,0,0,297.44,3828.744Z" transform="translate(-295.885 -3821.036)"/></g><g transform="translate(19.347 19.381)"><path d="M320.4,3814.941l-.638-1.924,2.769-2.492,1.855.829.88-.792-8.547-3.739-.017.015,2.817,8.894Zm-2.175-6.427c1.128.578,2.115,1.032,3.392,1.6l-2.166,1.948C319.019,3810.734,318.671,3809.7,318.224,3808.514Z" transform="translate(-316.702 -3806.824)"/></g><g transform="translate(25.146 11.037)"><path d="M337.69,3794.746l-3.219-4.8.383.092,7.443,1.785.01-.007-4.732-7.055-.925.62,3.219,4.8-.383-.092-7.444-1.785-.01.007,4.732,7.055Z" transform="translate(-332.033 -3784.762)"/></g><g transform="translate(39.093 5.759)"><path d="M370.791,3775.207a2.782,2.782,0,0,0-.756,2.8c.481,1.157,1.868,1.649,3.53.957a3.443,3.443,0,0,0,1.885-1.753l.955.42,1.168-.486-1.794-.774a4.54,4.54,0,0,0-.5-2.912l-.89.37a3.859,3.859,0,0,1,.446,2.128l-2.648-1.135a2.8,2.8,0,0,0,.779-2.9,2.151,2.151,0,0,0-3.91,1.754A2.881,2.881,0,0,0,370.791,3775.207Zm3.774,1.635a2.511,2.511,0,0,1-1.333,1.3c-1.008.419-1.943.167-2.268-.615a1.975,1.975,0,0,1,.6-1.983Zm-3.955-5.031a1.144,1.144,0,0,1,1.517.563c.326.782-.3,1.624-.729,2.115-.742-.332-1.207-.6-1.457-1.2A1.144,1.144,0,0,1,370.609,3771.812Z" transform="translate(-368.909 -3770.808)"/></g><g transform="translate(52.06 1.189)"><path d="M408.476,3767.293a5.375,5.375,0,0,0,2.368-1.1l-.215-1.034a5.563,5.563,0,0,1-2.364,1.119,3.285,3.285,0,0,1-1.336-6.432,5.489,5.489,0,0,1,2.56.108l-.215-1.034a5.251,5.251,0,0,0-2.554-.086,4.318,4.318,0,1,0,1.756,8.454Z" transform="translate(-403.192 -3758.724)"/></g><g transform="translate(62.001 0.231)"><path d="M431.191,3764.656l-.238-3.264,1.737-.127,1.962,3.14,1.239-.09L433.753,3761a2.4,2.4,0,0,0,1.532-2.463c-.117-1.6-1.286-2.467-3.114-2.334l-2.7.2.606,8.335Zm1.013-7.51c1.158-.084,1.9.467,1.97,1.474a1.557,1.557,0,0,1-1.642,1.738l-1.644.12-.234-3.219Z" transform="translate(-429.473 -3756.192)"/></g><g transform="translate(71.358)"><path d="M457.24,3764.259a2.9,2.9,0,0,0,3.409-2.859l.335-5.421-1.112-.069-.33,5.34a2.106,2.106,0,1,1-4.2-.26l.33-5.34-1.112-.069L454.22,3761A2.891,2.891,0,0,0,457.24,3764.259Z" transform="translate(-454.212 -3755.582)"/></g><g transform="translate(80.971 1.03)"><path d="M485.014,3766.6l-4.111-.808.544-2.767,3.325.654.182-.922-3.325-.654.524-2.664,3.94.774.181-.922-5.033-.99-1.612,8.2,5.2,1.023Z" transform="translate(-479.629 -3758.304)"/></g><g transform="translate(89.034 3.1)"><path d="M505.717,3772.28l-3.424-1.1,2.272-7.059-1.06-.341-2.56,7.954,4.485,1.443Z" transform="translate(-500.944 -3763.778)"/></g><g transform="translate(96.637 5.121)"><path d="M522.068,3778.242l2.969-6.8,2.34,1.022.376-.861-5.691-2.486-.376.862,2.33,1.018-2.969,6.8Z" transform="translate(-521.047 -3769.12)"/></g><g transform="translate(104.225 8.896)"><path d="M542.064,3788.4l1.7-2.85,5.174-2.779-1.066-.636-4.039,2.212.032-4.6-1.066-.637.009,5.873-1.7,2.851Z" transform="translate(-541.107 -3779.101)"/></g><g transform="translate(112.636 17.075)"><path d="M566.607,3804.979l2.4,2.069.614-.712-2.4-2.069,1.811-2.1,2.848,2.455.614-.711-3.692-3.183-5.456,6.329.844.727Z" transform="translate(-563.346 -3800.727)"/></g><g transform="translate(118.397 23.003)"><path d="M579.326,3822.841l2.423-2.2,1.17,1.289-1.261,3.481.835.919,1.289-3.726a2.4,2.4,0,0,0,2.883-.312c1.186-1.077,1.149-2.534-.084-3.891l-1.818-2-6.187,5.618Zm5.491-4.986,1.046,1.152a1.606,1.606,0,0,1,.054,2.459,1.557,1.557,0,0,1-2.38-.222l-1.108-1.22Z" transform="translate(-578.577 -3816.398)"/></g><g transform="translate(124.115 30.476)"><path d="M596.741,3845.3l.769-.54-2.406-3.429,2.309-1.62,1.947,2.774.769-.54-1.947-2.773,2.223-1.56,2.307,3.287.769-.54-2.946-4.2-6.84,4.8Z" transform="translate(-593.694 -3836.155)"/></g><g transform="translate(128.675 38.227)"><path d="M605.752,3860.579l2.5,4.682.83-.442-1.971-3.7,2.489-1.327,1.595,2.992.83-.442-1.594-2.992,2.4-1.277,1.889,3.544.83-.442-2.414-4.527Z" transform="translate(-605.752 -3856.648)"/></g></g><g transform="translate(184.578 0.001)"><g transform="translate(0 64.065)"><path d="M703.89,3924.833c-1.243-.161-1.988.528-2.768,2.043-.677,1.352-1.213,1.693-1.892,1.6-.737-.094-1.106-.868-.974-1.893a4.739,4.739,0,0,1,.742-1.94l-1.048-.136a5.346,5.346,0,0,0-.691,2.006c-.2,1.589.461,2.869,1.866,3.049,1.266.163,2.042-.5,2.8-2.016.663-1.33,1.136-1.726,1.907-1.627s1.087.924.953,1.96a5.549,5.549,0,0,1-.888,2.262l1.094.141a6.32,6.32,0,0,0,.792-2.333C706.006,3926.217,705.306,3925.015,703.89,3924.833Z" transform="translate(-697.222 -3924.512)"/></g><g transform="translate(1.957 52.638)"><path d="M713.508,3894.687a5.253,5.253,0,0,1-.195,1.187,5.855,5.855,0,0,1-2.282,3.032,4.292,4.292,0,1,0-.29,1.268,6.561,6.561,0,0,0,3.52-3.942,5.241,5.241,0,0,0,.209-1.28Zm-3.62,4.782a3.288,3.288,0,1,1-2.33-3.906A3.135,3.135,0,0,1,709.888,3899.469Z" transform="translate(-702.396 -3894.3)"/></g><g transform="translate(4.895 41.903)"><path d="M719.233,3872.359a2.9,2.9,0,0,0-1.465-4.2l-4.951-2.237-.459,1.016,4.877,2.2a2.107,2.107,0,1,1-1.735,3.84l-4.877-2.2-.459,1.016,4.951,2.236A2.892,2.892,0,0,0,719.233,3872.359Z" transform="translate(-710.165 -3865.92)"/></g><g transform="translate(9.724 33.603)"><path d="M732.829,3848.246l-.8-.5-2.215,3.557-2.394-1.491,1.791-2.877-.8-.5-1.791,2.877-2.305-1.435,2.123-3.409-.8-.5-2.712,4.354,7.093,4.417Z" transform="translate(-722.932 -3843.977)"/></g><g transform="translate(16.514 27.957)"><path d="M745.771,3836.51l-.923-1.8,2.358-2.884,1.96.537.749-.916-9.017-2.395-.015.018,4.139,8.361Zm-3.128-6.021c1.2.4,2.248.7,3.6,1.066l-1.844,2.255C743.766,3832.563,743.265,3831.6,742.643,3830.489Z" transform="translate(-740.883 -3829.048)"/></g><g transform="translate(21.584 18.07)"><path d="M760.805,3812.672l-1.751-1.874-.014-2.259,4.766,1.327.949-.887-5.7-1.522-.043-4.55-1.009.943.143,5.981-3.051-3.264-.814.761,5.705,6.1Z" transform="translate(-754.286 -3802.907)"/></g><g transform="translate(28.295 12.283)"><path d="M779.355,3796.808l.905-.65-1.936-2.7-.486-5.853-1.009.725.42,4.586-4.211-1.865-1.009.724,5.39,2.333Z" transform="translate(-772.029 -3787.607)"/></g><g transform="translate(41.469 6.253)"><path d="M813.113,3780a5.383,5.383,0,0,0,2.05-1.615l-.449-.956a5.565,5.565,0,0,1-2.04,1.636,3.285,3.285,0,0,1-2.79-5.948,5.476,5.476,0,0,1,2.515-.487l-.449-.957a5.26,5.26,0,0,0-2.505.508,4.319,4.319,0,1,0,3.667,7.819Z" transform="translate(-806.86 -3771.666)"/></g><g transform="translate(50.058 4.142)"><path d="M836.637,3772.914l-.291-.894-3.421,1.114-2.3-7.051-1.059.346,2.589,7.944Z" transform="translate(-829.568 -3766.083)"/></g><g transform="translate(58.136 1.105)"><path d="M857.769,3766.216l-.185-.921-4.109.823-.554-2.766,3.323-.666-.185-.922-3.323.666-.533-2.663,3.938-.788-.185-.922-5.03,1.008,1.641,8.194Z" transform="translate(-850.927 -3758.056)"/></g><g transform="translate(66.791 0.224)"><path d="M875.672,3762.478l3.716-.258.95,1.8,1.181-.082-4.431-8.208-.023,0-3.257,8.741,1.181-.082Zm1.561-4.494c.533,1.15,1.031,2.115,1.686,3.35l-2.906.2C876.493,3760.223,876.852,3759.2,877.233,3757.984Z" transform="translate(-873.809 -3755.726)"/></g><g transform="translate(76.975 0)"><path d="M902.255,3757.922l.246.308,4.775,5.984h.012l.6-8.475-1.111-.08-.411,5.766-.246-.308-4.775-5.984h-.012l-.6,8.475,1.111.079Z" transform="translate(-900.732 -3755.134)"/></g><g transform="translate(90.686 2.151)"><g transform="translate(0 0)"><g transform="translate(0)"><rect width="8.355" height="1.114" transform="translate(0 8.124) rotate(-76.482)"/></g></g></g><g transform="translate(95.269 3.439)"><path d="M952.117,3767.159l.152.363,2.961,7.061.011,0,2.894-7.989-1.048-.38-1.969,5.436-.152-.364-2.961-7.061-.011,0-2.894,7.989,1.048.379Z" transform="translate(-949.1 -3764.226)"/></g><g transform="translate(105.563 8.878)"><path d="M978.69,3786.771a6.151,6.151,0,0,0,2.715.736l1.518-2.821-.961-.517-1.193,2.218a4.447,4.447,0,0,1-1.595-.515,3.291,3.291,0,0,1,3.149-5.779,5.509,5.509,0,0,1,1.911,1.741l.506-.941a5.447,5.447,0,0,0-1.907-1.7,4.319,4.319,0,1,0-4.143,7.577Z" transform="translate(-976.316 -3778.606)"/></g><g transform="translate(112.959 13.135)"><path d="M996.771,3797.273l1.925-2.646,1.408,1.024-.527,3.664,1,.73.5-3.909a2.4,2.4,0,0,0,2.758-.892c.943-1.295.611-2.713-.872-3.792l-2.187-1.591-4.916,6.757Zm4.362-6,1.258.914a1.606,1.606,0,0,1,.553,2.4,1.557,1.557,0,0,1-2.376.267l-1.333-.969Z" transform="translate(-995.87 -3789.862)"/></g><g transform="translate(119.906 19.158)"><path d="M1018.1,3815.5l.644-.685-3.052-2.869,1.931-2.055,2.469,2.321.644-.686-2.469-2.32,1.86-1.979,2.926,2.75.644-.685-3.737-3.513-5.722,6.088Z" transform="translate(-1014.237 -3805.784)"/></g><g transform="translate(125.784 25.748)"><path d="M1031.323,3830.384c1.679,2.061,4.089,2.373,6.032.789s2.11-4.024.417-6.1l-1.517-1.863-6.478,5.277Zm5.713-4.729a3.239,3.239,0,1,1-4.992,4.126l-.835-1.026,5.021-4.09Z" transform="translate(-1029.777 -3823.208)"/></g><g transform="translate(131.741 34.316)"><g transform="translate(0 0)"><g transform="translate(0)"><rect width="8.357" height="1.114" transform="translate(0 4.55) rotate(-32.987)"/></g></g></g><g transform="translate(134.255 39.054)"><path d="M1056.026,3861.494l1.562,3.008.834-.433-1.562-3.008,2.411-1.252,1.851,3.564.835-.433-2.365-4.553-7.418,3.852,2.445,4.708.835-.433-1.932-3.719Z" transform="translate(-1052.174 -3858.386)"/></g><g transform="translate(137.886 47.433)"><path d="M1071.484,3885.739l-5.447,1.94.184-.349,3.563-6.778,0-.011-8.006,2.852.374,1.05,5.447-1.94-.184.349-3.563,6.778,0,.011,8.006-2.852Z" transform="translate(-1061.774 -3880.541)"/></g><g transform="translate(141.312 57.253)"><path d="M1078.847,3912.774l.92-.194-1.284-6.077-.92.195.526,2.488-7.258,1.534.23,1.091,7.258-1.534Z" transform="translate(-1070.831 -3906.503)"/></g><g transform="translate(142.404 66.432)"><path d="M1079.882,3930.78c-1.271.12-1.882.935-2.287,2.581-.354,1.444-.728,1.934-1.5,2.006s-1.263-.662-1.36-1.7a5.535,5.535,0,0,1,.369-2.4l-1.1.1a6.324,6.324,0,0,0-.259,2.449c.164,1.744,1.11,2.763,2.531,2.629,1.248-.117,1.822-.952,2.25-2.6.364-1.467.811-1.917,1.492-1.981.74-.069,1.269.6,1.365,1.632a4.744,4.744,0,0,1-.3,2.056l1.052-.1a5.354,5.354,0,0,0,.233-2.108C1082.223,3931.75,1081.292,3930.648,1079.882,3930.78Z" transform="translate(-1073.719 -3930.77)"/></g><g transform="translate(13.877 13.77)"><path d="M795.42,3791.541a61.508,61.508,0,1,0,61.507,61.507A61.577,61.577,0,0,0,795.42,3791.541Zm0,121.5a59.995,59.995,0,1,1,59.994-60A60.063,60.063,0,0,1,795.42,3913.043Z" transform="translate(-733.912 -3791.541)"/></g><g transform="translate(48.514 54.276)"><path d="M878.5,3924.639l-10.091-1.808a16.632,16.632,0,0,1-13.384-13.384l-1.808-10.091a.879.879,0,0,0-1.73,0l-1.808,10.091a16.631,16.631,0,0,1-13.384,13.384l-10.091,1.808a.879.879,0,0,0,0,1.73l10.091,1.808a16.63,16.63,0,0,1,13.384,13.384l1.808,10.091a.879.879,0,0,0,1.73,0l1.808-10.091a16.631,16.631,0,0,1,13.384-13.384l10.091-1.808a.879.879,0,0,0,0-1.73Zm-10.357,2.049a18.151,18.151,0,0,0-14.607,14.607l-1.183,6.606-1.184-6.606a18.15,18.15,0,0,0-14.606-14.607l-6.606-1.184,6.606-1.184a18.15,18.15,0,0,0,14.606-14.606l1.184-6.606,1.183,6.606a18.151,18.151,0,0,0,14.607,14.606l6.606,1.184Z" transform="translate(-825.485 -3898.632)"/></g><g transform="translate(85.456 52.868)"><path d="M940.684,3903.217l-3.221-.577a4.79,4.79,0,0,1-3.855-3.856l-.577-3.218a.8.8,0,0,0-1.566,0l-.577,3.22a4.79,4.79,0,0,1-3.855,3.855l-3.223.577a.8.8,0,0,0,0,1.566l3.221.577a4.79,4.79,0,0,1,3.855,3.855l.577,3.22a.8.8,0,0,0,1.566,0l.577-3.22a4.79,4.79,0,0,1,3.855-3.855l3.222-.578a.8.8,0,0,0,0-1.565Zm-8.436,5.165a4.382,4.382,0,0,1,0-8.763,4.382,4.382,0,0,1,0,8.763Z" transform="translate(-923.157 -3894.908)"/></g><g transform="translate(55.846 41.995)"><path d="M847.676,3873.666a2.963,2.963,0,0,1,2.384,2.384l.387,2.16h0a.781.781,0,0,0,.77.643h0l.656-.023.5-2.781a2.963,2.963,0,0,1,2.384-2.384l2.161-.387a.782.782,0,0,0,.643-.773l-.023-.656-2.781-.5a2.963,2.963,0,0,1-2.384-2.385l-.386-2.156a.782.782,0,0,0-.768-.648l-.661.02-.5,2.785a2.963,2.963,0,0,1-2.385,2.385l-2.156.386a.781.781,0,0,0-.648.768l.02.661Zm3.542-3.372a2.214,2.214,0,0,1,0,4.429,2.214,2.214,0,1,1,0-4.429Z" transform="translate(-844.871 -3866.162)"/></g></g><g transform="translate(388.447 0.387)"><g transform="translate(96.201 27.278)"><path class="a" d="M528.751,6826.8" transform="translate(-528.751 -6826.796)"/></g><g transform="translate(11.59 101.193)"><path class="a" d="M287.638,7037.428" transform="translate(-287.638 -7037.428)"/></g><g transform="translate(79.044 75.475)"><path class="a" d="M479.86,6964.141" transform="translate(-479.86 -6964.141)"/></g><g transform="translate(79.044 75.475)"><path class="a" d="M479.86,6964.141" transform="translate(-479.86 -6964.141)"/></g><g transform="translate(0 14.943)"><path d="M315.144,6912.71a60.531,60.531,0,1,1,60.532-60.531A60.6,60.6,0,0,1,315.144,6912.71Zm0-119.66a59.128,59.128,0,1,0,59.128,59.128A59.2,59.2,0,0,0,315.144,6793.051Z" transform="translate(-254.612 -6791.647)"/></g><g transform="translate(11.084)"><g transform="translate(0 17.832)"><path d="M286.2,6800.584l.825-.706,8.326,4.239-.924.791-2.3-1.2-2.954,2.53.825,2.466-.879.752Zm2.627,4.644,2.355-2.017-1.7-.9c-.658-.347-1.357-.723-2.014-1.086l-.018.015c.259.706.514,1.445.769,2.2Z" transform="translate(-286.197 -6799.878)"/></g><g transform="translate(6.033 13.138)"><path d="M303.389,6787.126l.946-.625,4.2,6.354,3.406-2.249.565.856-4.352,2.874Z" transform="translate(-303.389 -6786.502)"/></g><g transform="translate(13.203 8.776)"><path d="M323.822,6774.589l1.01-.516,3.457,6.781,3.635-1.853.466.913-4.645,2.368Z" transform="translate(-323.822 -6774.073)"/></g><g transform="translate(25.188 3.009)"><path d="M359.607,6765.31a4.508,4.508,0,0,0,2.756.078c.981-.3,1.541-.959,1.264-1.86-.325-1.06-1.351-.945-2.529-.921-1.265.025-2.541-.107-3-1.612-.447-1.461.354-2.63,1.962-3.123a4.877,4.877,0,0,1,2.561-.11l.35,1.141a4.613,4.613,0,0,0-2.629-.03c-.924.282-1.452.881-1.193,1.726.315,1.026,1.325.9,2.416.882,1.3-.025,2.635.09,3.118,1.664.461,1.5-.372,2.734-2.026,3.24a5.312,5.312,0,0,1-2.686.112Z" transform="translate(-357.974 -6757.636)"/></g><g transform="translate(33.407 0.609)"><path d="M381.395,6751.912l1.116-.2.687,3.852.026.008,3.024-4.526,1.386-.248-3.115,4.627,4.96,3.82-1.457.259-4.754-3.686-.021.015.781,4.382-1.116.2Z" transform="translate(-381.395 -6750.8)"/></g><g transform="translate(42.595 0.274)"><path d="M407.579,6749.938l1.13-.094.713,8.61-1.13.093Z" transform="translate(-407.579 -6749.844)"/></g><g transform="translate(47.346)"><path d="M421.116,6757.7l.194-8.638,1.074.024,3.507,4.877c.486.668.972,1.358,1.446,2.05l.024-.012c0-.752.012-1.623.031-2.458l.1-4.342,1.1.024-.194,8.637-1.073-.023-3.507-4.878c-.486-.667-.972-1.358-1.446-2.049l-.025.011c0,.752-.012,1.624-.031,2.458l-.1,4.343Z" transform="translate(-421.116 -6749.063)"/></g><g transform="translate(61.751 1.016)"><path d="M465,6753.571l-2.835-.609.215-1,6.779,1.457-.215,1-2.835-.609-1.6,7.443-1.109-.238Z" transform="translate(-462.165 -6751.958)"/></g><g transform="translate(71.149 3.128)"><path d="M490.49,6763.559l-1.544-5.581,1.236.441.673,2.481c.168.632.343,1.276.5,1.93l.022.008c.522-.4,1.051-.778,1.614-1.186l2.077-1.489,1.191.426-4.7,3.34-1.315,3.687-1.068-.382Z" transform="translate(-488.946 -6757.978)"/></g><g transform="translate(77.301 7.012)"><path d="M510.4,6769.046l2.009,1.024a5.175,5.175,0,0,1,2.069,1.563,2.326,2.326,0,0,1,.146,2.472,2.436,2.436,0,0,1-2.017,1.383,5.622,5.622,0,0,1-2.773-.866l-.8-.406-1.55,3.041-1.01-.516Zm.011,4.76a3.932,3.932,0,0,0,1.985.65,1.519,1.519,0,0,0,1.091-2.375,4.409,4.409,0,0,0-1.629-1.139l-.914-.465-1.457,2.858Z" transform="translate(-506.477 -6769.046)"/></g><g transform="translate(84.667 11.511)"><path d="M532.279,6781.865l4.143,2.778-.572.853-3.2-2.146-1.462,2.18,2.8,1.88-.552.824-2.8-1.88-1.655,2.467,3.291,2.207-.572.853-4.232-2.837Z" transform="translate(-527.468 -6781.865)"/></g><g transform="translate(91.011 17.044)"><path d="M546.35,6802.091a4.523,4.523,0,0,0,1.419,2.365c.782.665,1.638.781,2.248.063.719-.845.069-1.647-.586-2.626-.7-1.052-1.279-2.2-.259-3.4.989-1.164,2.406-1.118,3.688-.029a4.885,4.885,0,0,1,1.474,2.1l-.773.91a4.621,4.621,0,0,0-1.392-2.232c-.737-.626-1.525-.747-2.1-.075-.7.818-.048,1.6.559,2.51.723,1.084,1.344,2.27.278,3.524-1.02,1.2-2.5,1.16-3.823.04a5.322,5.322,0,0,1-1.541-2.2Z" transform="translate(-545.547 -6797.634)"/></g></g><g transform="translate(60.532 75.475)"><path class="a" d="M427.106,6964.141" transform="translate(-427.106 -6964.141)"/></g><g transform="translate(18.226 75.475)"><path class="a" d="M306.55,6964.141" transform="translate(-306.55 -6964.141)"/></g><g transform="translate(60.532 75.475)"><path class="a" d="M427.106,6964.141" transform="translate(-427.106 -6964.141)"/></g><g transform="translate(7.936 35.296)"><g transform="translate(4.407)"><g transform="translate(25.19 25.108)"><path d="M406.2,6942.026a21.75,21.75,0,0,0-43.235-.153l-1.395-.158a23.154,23.154,0,0,1,46.025.162Z" transform="translate(-361.566 -6921.193)"/></g><path d="M291.185,6895.7l-1.4-.064a48.253,48.253,0,0,1,96.389-.207l-1.4.07a46.849,46.849,0,0,0-93.585.2Z" transform="translate(-289.783 -6849.646)"/><g transform="translate(6.517 6.277)"><path d="M309.747,6904.739l-1.394-.164a41.973,41.973,0,0,1,83.292-.574l.006.09-.767.009-.631.084a40.569,40.569,0,0,0-80.507.554Z" transform="translate(-308.353 -6867.533)"/></g><g transform="translate(13.243 12.554)"><path d="M328.778,6914.694h-.571l-.008-.705-.679-.141a35.708,35.708,0,0,1,69.92.016l-1.374.286a34.3,34.3,0,0,0-67.171-.015Z" transform="translate(-327.52 -6885.419)"/></g><g transform="translate(19.282 18.831)"><path d="M401.252,6927.965a28.018,28.018,0,0,0-55.143-.429l-1.38-.259a29.427,29.427,0,0,1,57.906.45Z" transform="translate(-344.729 -6903.307)"/></g></g><g transform="translate(0 40.422)"><path d="M295.562,6988.4a11.731,11.731,0,0,1-9.4-4.707,7.266,7.266,0,1,1,0-14.148,11.754,11.754,0,0,1,18.815,0,7.266,7.266,0,1,1,0,14.148A11.765,11.765,0,0,1,295.562,6988.4Zm-8.828-6.334.292.428a10.351,10.351,0,0,0,17.083,0l.292-.425.493.151a5.861,5.861,0,1,0,0-11.2l-.493.152-.292-.426a10.352,10.352,0,0,0-17.083,0l-.292.428-.494-.153a5.938,5.938,0,0,0-1.748-.262,5.862,5.862,0,1,0,1.748,11.46Z" transform="translate(-277.226 -6964.833)"/></g><g transform="translate(69.256 40.422)"><path d="M492.916,6988.4a11.731,11.731,0,0,1-9.4-4.707,7.266,7.266,0,1,1,0-14.148,11.754,11.754,0,0,1,18.815,0,7.266,7.266,0,1,1,0,14.148A11.763,11.763,0,0,1,492.916,6988.4Zm-8.828-6.334.292.428a10.351,10.351,0,0,0,17.083,0l.292-.425.493.151a5.936,5.936,0,0,0,1.748.264,5.862,5.862,0,1,0,0-11.724,5.944,5.944,0,0,0-1.748.262l-.493.152-.292-.426a10.351,10.351,0,0,0-17.083,0l-.292.428-.495-.153a5.937,5.937,0,0,0-1.748-.262,5.862,5.862,0,1,0,1.748,11.46Z" transform="translate(-474.58 -6964.833)"/></g></g></g><g transform="translate(929.323 0.554)"><g transform="translate(0 14.178)"><path d="M1243.889,3794.079a61.577,61.577,0,0,0-61.507,61.508,58.871,58.871,0,0,0,18.024,42.745,63.458,63.458,0,0,0,86.012.9l.054.054,1.07-1.07-.026-.026a58.869,58.869,0,0,0,17.88-42.6A61.577,61.577,0,0,0,1243.889,3794.079Zm0,119.989a60.644,60.644,0,0,1-42.432-16.825,57.369,57.369,0,0,1-17.562-41.657,59.79,59.79,0,0,1,17.041-41.839l48.62,48.62a15.35,15.35,0,0,0-2.777,4.022l-2.515-1.317a.756.756,0,1,0-.7,1.34l2.633,1.379a15.5,15.5,0,0,0-.895,4.486h-5.153a.756.756,0,1,0,0,1.512h5.153a15.5,15.5,0,0,0,.889,4.471l-4.754,1.978a.756.756,0,0,0,.581,1.4l4.753-1.977a15.349,15.349,0,0,0,2.484,3.724l-2.483,2.258a.756.756,0,1,0,1.018,1.119l2.534-2.305a15.349,15.349,0,0,0,3.811,2.551l-.846,1.99a.756.756,0,0,0,1.392.592l.852-2.006a15.512,15.512,0,0,0,4.433.875v3.771a.757.757,0,0,0,1.513,0v-3.771a15.508,15.508,0,0,0,4.48-.893l.866,2a.756.756,0,1,0,1.389-.6l-.858-1.983a15.358,15.358,0,0,0,4.033-2.782l13.959,13.959A60.718,60.718,0,0,1,1243.889,3914.068Zm11.441-53.889a.757.757,0,0,0,.081-.029c.009,0,.016-.011.025-.016a14.018,14.018,0,0,1,10.55-.008.743.743,0,0,0,.072.036c.015.006.03.008.045.012a14.024,14.024,0,0,1,7.468,7.454c.006.018.009.036.016.053s.017.025.024.039a14.022,14.022,0,0,1,.019,10.579c-.01.021-.023.042-.033.064s-.008.032-.013.048a13.849,13.849,0,0,1-2.225,3.621l-19.635-19.635A13.853,13.853,0,0,1,1255.331,3860.179Zm14.99,22.952a13.93,13.93,0,0,1-19.694-19.694Zm16.127,13.988-14.016-14.015a15.335,15.335,0,0,0,2.273-3.5l2.279.878a.756.756,0,1,0,.544-1.411l-2.249-.867a15.5,15.5,0,0,0,.866-4.41h5.153a.756.756,0,1,0,0-1.512h-5.153a15.5,15.5,0,0,0-.888-4.47l1.436-.6a.757.757,0,0,0-.58-1.4l-1.436.6a15.355,15.355,0,0,0-2.509-3.751l3.639-3.639a.756.756,0,0,0-1.07-1.07l-3.639,3.639a15.327,15.327,0,0,0-3.815-2.54l1.164-3.113a.757.757,0,0,0-1.417-.53l-1.148,3.069a15.526,15.526,0,0,0-4.4-.863v-4.6a.757.757,0,0,0-1.513,0v4.6a15.515,15.515,0,0,0-4.51.9l-1.4-2.875a.756.756,0,1,0-1.359.664l1.365,2.8a15.327,15.327,0,0,0-3.4,2.224l-48.648-48.648a59.962,59.962,0,0,1,101.878,42.91A57.37,57.37,0,0,1,1286.447,3897.119Z" transform="translate(-1182.382 -3794.079)"/></g><g transform="translate(71.415 96.682)"><path d="M1375.032,4019.888a3.839,3.839,0,1,0-3.839-3.839A3.843,3.843,0,0,0,1375.032,4019.888Zm0-6.165a2.326,2.326,0,1,1-2.326,2.326A2.329,2.329,0,0,1,1375.032,4013.723Z" transform="translate(-1371.193 -4012.21)"/></g><g transform="translate(14.702 12.368)"><path d="M1227.118,3799.271l-3.374-4.694.386.08,7.5,1.542.01-.007-4.96-6.9-.9.65,3.374,4.694-.386-.08-7.5-1.542-.009.007,4.96,6.9Z" transform="translate(-1221.253 -3789.294)"/></g><g transform="translate(25.074 7.59)"><path d="M1254.93,3784.84a4.317,4.317,0,1,0-5.77-1.917A4.222,4.222,0,0,0,1254.93,3784.84Zm-3.433-6.782a3.287,3.287,0,1,1-1.333,4.356A3.125,3.125,0,0,1,1251.5,3778.058Z" transform="translate(-1248.674 -3776.662)"/></g><g transform="translate(39.062 2.614)"><path d="M1290.639,3771.632c1.6-.44,2.425-1.643,2.049-3.008a2.149,2.149,0,0,0-1.871-1.592,1.839,1.839,0,0,0,.56-1.9c-.379-1.377-1.659-1.915-3.248-1.478l-2.473.681,2.219,8.057Zm.94-2.751a1.467,1.467,0,0,1-1.147,1.869l-1.757.484-.785-2.854,1.969-.542A1.338,1.338,0,0,1,1291.579,3768.881Zm-4.642-3.958,1.511-.417a1.382,1.382,0,0,1,1.848.984,1.22,1.22,0,0,1-.5,1.462l-2.138.588Z" transform="translate(-1285.656 -3763.506)"/></g><g transform="translate(48.622 0.615)"><path d="M1312.657,3765.057l3.692-.506,1.069,1.729,1.173-.161-4.972-7.9-.023,0-2.665,8.943,1.173-.161Zm1.258-4.59c.609,1.112,1.17,2.043,1.907,3.23l-2.887.4C1313.326,3762.75,1313.616,3761.7,1313.915,3760.466Z" transform="translate(-1310.931 -3758.221)"/></g><g transform="translate(58.755)"><path d="M1344.66,3760.886c.041-2.507-1.719-4.208-4.4-4.251l-2.4-.04-.137,8.356,2.449.041A4.065,4.065,0,0,0,1344.66,3760.886Zm-5.7-3.333,1.277.021a3.24,3.24,0,1,1-.06,6.477l-1.323-.021Z" transform="translate(-1337.721 -3756.595)"/></g><g transform="translate(71.641 1.151)"><path d="M1377.3,3766.426c.23-1.233-.416-2.014-1.884-2.877-1.312-.752-1.622-1.305-1.5-1.979.136-.73.929-1.055,1.944-.866a4.742,4.742,0,0,1,1.9.849l.193-1.038a5.342,5.342,0,0,0-1.964-.8c-1.575-.293-2.889.3-3.148,1.692-.234,1.255.383,2.066,1.855,2.907,1.291.736,1.66,1.23,1.518,1.994s-.983,1.033-2.01.842a5.536,5.536,0,0,1-2.208-1.013l-.2,1.084a6.316,6.316,0,0,0,2.284.921C1375.8,3768.46,1377.036,3767.829,1377.3,3766.426Z" transform="translate(-1371.79 -3759.639)"/></g><g transform="translate(80.639 2.437)"><path d="M1395.848,3771.774l1.066.325,2.165-7.1,2.443.745.274-.9-5.941-1.812-.274.9,2.432.742Z" transform="translate(-1395.581 -3763.037)"/></g><g transform="translate(87.554 5.486)"><path d="M1415.859,3780.165a2.9,2.9,0,0,0,4.206-1.455l2.247-4.945-1.014-.461-2.214,4.871a2.107,2.107,0,1,1-3.836-1.743l2.213-4.871-1.014-.461-2.248,4.945A2.892,2.892,0,0,0,1415.859,3780.165Z" transform="translate(-1413.862 -3771.099)"/></g><g transform="translate(95.513 10.335)"><path d="M1435.85,3791.605l1.955-3.145,2.691,1.673.5-.8-2.691-1.673,1.465-2.356,3.194,1.986.5-.8-4.14-2.575-4.413,7.1Z" transform="translate(-1434.904 -3783.919)"/></g><g transform="translate(102.012 15.172)"><path d="M1452.96,3803.945l2.3-2.9,2.482,1.971.585-.736-2.481-1.971,1.726-2.172,2.945,2.339.585-.736-3.818-3.033-5.2,6.545Z" transform="translate(-1452.087 -3796.706)"/></g><g transform="translate(15.98 66.231)"><path d="M1241.387,3947.136a16.524,16.524,0,0,0,9.06-2.7l1.727,2.178a.757.757,0,1,0,1.186-.94l-1.684-2.124a4.345,4.345,0,0,0,.887-1.085l2.381.248c.026,0,.053,0,.079,0a.757.757,0,0,0,.077-1.51l-2.006-.208a.1.1,0,0,0,0-.014,4.346,4.346,0,0,0-.373-2.612l1.021-.729a.757.757,0,1,0-.879-1.231l-1.022.73a4.347,4.347,0,0,0-2.35-1.2c-.107-.017-.213-.027-.32-.037l.292-1.758a.756.756,0,1,0-1.492-.249l-.357,2.142a4.392,4.392,0,0,0-1.391.659l-.28.2a7.844,7.844,0,0,1-5.02,1.459l.25-1.5a.756.756,0,1,0-1.492-.249l-.253,1.52a7.827,7.827,0,0,1-4.152-2.612l.737-.873a.756.756,0,0,0-1.156-.975l-.577.684a4.389,4.389,0,0,0-4.826-.689l-1.2-1.65a.757.757,0,0,0-1.223.891l1.194,1.639a4.346,4.346,0,0,0-1.195,2.346,4.435,4.435,0,0,0-.054.636l-1.716.288a.756.756,0,0,0,.124,1.5.747.747,0,0,0,.126-.01l1.692-.284a4.4,4.4,0,0,0,.584,1.135h0a16.937,16.937,0,0,0,1.659,1.979l-2.141,2.485a.756.756,0,0,0,1.146.987l2.1-2.437a16.459,16.459,0,0,0,3.4,2.241l-.809,1.519a.756.756,0,1,0,1.336.711l.865-1.624a16.814,16.814,0,0,0,2.929.825l-.505,3.034a.756.756,0,0,0,.622.871.814.814,0,0,0,.125.01.757.757,0,0,0,.745-.632l.511-3.069C1240.312,3947.108,1240.85,3947.136,1241.387,3947.136Zm-12.367-7.861h0a2.869,2.869,0,0,1,4.669-3.336l.02.027,0,0a9.416,9.416,0,0,0,13.116,2.159l.28-.2a2.859,2.859,0,0,1,1.275-.509l.041,0a2.87,2.87,0,0,1,2.02,5.183l-.28.2a15.063,15.063,0,0,1-11.3,2.619,15.28,15.28,0,0,1-3.5-1.025l0,0a.72.72,0,0,0-.091-.038A15.065,15.065,0,0,1,1229.02,3939.275Z" transform="translate(-1224.63 -3931.7)"/></g><g transform="translate(31.995 90.466)"><path d="M1282.712,3998.773l-1.235.384a3.349,3.349,0,0,0-1.329-1.3c-.094-.05-.189-.1-.286-.136l.174-1.071a.756.756,0,1,0-1.493-.243l-.172,1.055a3.369,3.369,0,0,0-.793.135,12.518,12.518,0,0,0-1.595.6l-1.1-1.878a.756.756,0,1,0-1.3.767l1.073,1.827a12.132,12.132,0,0,0-2.032,1.577l-.706-.752a.756.756,0,1,0-1.1,1.035l.783.835a12.307,12.307,0,0,0-1.048,1.519l-1.776-.956a.756.756,0,1,0-.716,1.333l1.808.972a12.255,12.255,0,0,0-.621,1.8l-.715-.154a.756.756,0,1,0-.32,1.479l.75.162a12.179,12.179,0,0,0,.236,4.394l-1.714.61a.756.756,0,1,0,.507,1.425l1.666-.593a3.355,3.355,0,0,0,.4.632l-.667,1.448a.756.756,0,1,0,1.374.633l.521-1.131a3.353,3.353,0,0,0,1.4.315c.075,0,.15-.012.224-.017l.213.71a.757.757,0,0,0,1.449-.436l-.212-.7a3.351,3.351,0,0,0,1.3-1.332l.01-.021.94.505a.756.756,0,0,0,.716-1.333l-1.265-.68a3.369,3.369,0,0,0-.142-1.042l-.071-.238a5.454,5.454,0,0,1,.085-3.411l.753.4a.756.756,0,1,0,.717-1.332l-.776-.417a5.445,5.445,0,0,1,2.358-1.9l.335.557a.757.757,0,1,0,1.3-.78l-.225-.373a3.367,3.367,0,0,0,1.533-3.062l1.244-.386a.757.757,0,0,0-.449-1.446Zm-2.521,2.942a1.849,1.849,0,0,1-1.1.9l-.025.009-.017.006a7.01,7.01,0,0,0-4.655,8.72l.072.238a1.862,1.862,0,0,1-3.567,1.073l-.072-.238a10.75,10.75,0,0,1,7.191-13.375h0a1.874,1.874,0,0,1,.539-.08,1.864,1.864,0,0,1,1.638,2.746Z" transform="translate(-1266.972 -3995.775)"/></g><g transform="translate(45.544 35.412)"><path d="M1335.705,3862.843l-6.755.205a9.859,9.859,0,0,0-.625-2.366l1.61-.856a.757.757,0,0,0-.711-1.336l-1.571.835a10.02,10.02,0,0,0-4.672-4.091l.467-1.689a.756.756,0,1,0-1.458-.4l-.444,1.605a9.955,9.955,0,0,0-6.076.372l-1.683-4.414a.757.757,0,0,0-1.414.539l1.73,4.534a9.91,9.91,0,0,0-1.939,1.474l-2.215-1.958a.756.756,0,1,0-1,1.133l2.215,1.958a9.859,9.859,0,0,0-2.014,5.816l-5.6.032a.757.757,0,0,0,0,1.513h0l5.679-.033a9.9,9.9,0,0,0,.612,2.355l-.977.465a.756.756,0,0,0,.326,1.439.749.749,0,0,0,.325-.074l.99-.472a9.906,9.906,0,0,0,1.446,1.891l-3.944,4.461a.756.756,0,1,0,1.134,1l3.946-4.463a9.922,9.922,0,0,0,2.084,1.211l-.343,1.052a.756.756,0,0,0,.484.954.747.747,0,0,0,.235.038.758.758,0,0,0,.719-.521l.336-1.031a9.888,9.888,0,0,0,2.472.318q.311,0,.625-.019a9.965,9.965,0,0,0,3.092-.695l2.188,4.213a.756.756,0,1,0,1.343-.7l-2.173-4.184a9.9,9.9,0,0,0,1.869-1.433l2.215,1.959a.757.757,0,0,0,1-1.133l-2.215-1.958a9.859,9.859,0,0,0,2.014-5.835l6.71-.2a.756.756,0,0,0-.046-1.512Zm-10.29,7.135a8.411,8.411,0,0,1-2.589,1.982c-.012.005-.023.008-.035.014l-.02.013a8.48,8.48,0,0,1-6.391.395l-.029-.013-.026-.005a8.417,8.417,0,0,1-2.82-1.652h0a8.42,8.42,0,0,1-1.976-2.578c0-.007,0-.015-.008-.022s-.015-.022-.021-.035a8.446,8.446,0,0,1,7.076-12.107c.176-.011.35-.016.523-.016a8.437,8.437,0,0,1,6.316,14.026Z" transform="translate(-1302.795 -3850.22)"/></g><g transform="translate(82.266 49.665)"><path d="M1417.192,3901.836l-2.119.032a12.05,12.05,0,0,0-.368-2.545l1-.242a.756.756,0,1,0-.355-1.471l-1.113.269a12.444,12.444,0,0,0-.8-1.661l1.708-1.073a.757.757,0,1,0-.805-1.281l-1.738,1.094a12.308,12.308,0,0,0-1.26-1.43l.487-.545a.757.757,0,1,0-1.128-1.008l-.511.572a12.176,12.176,0,0,0-3.938-1.963l.316-1.791a.757.757,0,1,0-1.49-.263l-.307,1.741a3.38,3.38,0,0,0-.746.033l-.93-1.3a.756.756,0,0,0-1.229.882l.725,1.01a3.35,3.35,0,0,0-1.066,1.268l-.717-.163a.756.756,0,0,0-.336,1.475l.718.163a3.37,3.37,0,0,0,.529,1.808l-.9.569a.756.756,0,0,0,.8,1.281l1.216-.764a3.38,3.38,0,0,0,.976.392l.242.055a5.45,5.45,0,0,1,2.924,1.758l-.724.455a.756.756,0,0,0,.805,1.281l.746-.469a5.436,5.436,0,0,1,.486,2.988l-.65.016a.757.757,0,0,0,.019,1.513h.02l.437-.011a3.383,3.383,0,0,0,1.9,2.844l-.278,1.273a.757.757,0,0,0,.578.9.787.787,0,0,0,.162.017.757.757,0,0,0,.738-.595l.275-1.26a3.356,3.356,0,0,0,1.784-.518c.09-.057.177-.119.26-.182l.844.68a.756.756,0,1,0,.949-1.178l-.833-.671a3.377,3.377,0,0,0,.274-.756,12.443,12.443,0,0,0,.262-1.684l2.178-.033a.757.757,0,1,0-.023-1.513Zm-4.718,4.057a1.863,1.863,0,0,1-2.807-1.991c0-.008,0-.017,0-.025l0-.019a7.01,7.01,0,0,0-5.286-8.352l-.242-.055a1.862,1.862,0,1,1,.829-3.632l.242.055a10.687,10.687,0,0,1,4.538,2.26c.006,0,.009.011.015.016s.03.021.044.032a10.83,10.83,0,0,1,3.217,4.8c.006.021.014.042.021.063a10.667,10.667,0,0,1,.247,5.686A1.85,1.85,0,0,1,1412.475,3905.893Z" transform="translate(-1399.882 -3887.903)"/></g><g transform="translate(60.34 64.756)"><path d="M1344.995,3927.8a3.083,3.083,0,1,0,3.083,3.083A3.086,3.086,0,0,0,1344.995,3927.8Zm0,4.653a1.57,1.57,0,1,1,1.57-1.57A1.572,1.572,0,0,1,1344.995,3932.453Z" transform="translate(-1341.912 -3927.801)"/></g></g><g transform="translate(557.897 0.001)"><g transform="translate(0 38.4)"><path d="M3027.206,4664.421l.973.519a6.347,6.347,0,0,0,1.566-1.9c.824-1.547.595-2.919-.665-3.59-1.106-.59-2.046-.209-3.311.931-1.112,1.026-1.734,1.156-2.338.833-.656-.35-.727-1.2-.241-2.115a4.744,4.744,0,0,1,1.38-1.553l-.932-.5a5.364,5.364,0,0,0-1.356,1.631c-.753,1.415-.583,2.847.667,3.513,1.127.6,2.086.257,3.332-.894,1.091-1.011,1.672-1.214,2.359-.848s.689,1.249.2,2.171A5.542,5.542,0,0,1,3027.206,4664.421Z" transform="translate(-3021.831 -4657.047)"/></g><g transform="translate(3.719 29.389)"><path d="M3040.453,4640.772a2.9,2.9,0,0,0-.631-4.4l-4.43-3.144-.646.908,4.364,3.1a2.106,2.106,0,1,1-2.438,3.436l-4.363-3.1-.645.909,4.43,3.144A2.891,2.891,0,0,0,3040.453,4640.772Z" transform="translate(-3031.663 -4633.224)"/></g><g transform="translate(10.753 23.051)"><path d="M3054.4,4621.244c1.31-.7,1.924-.752,2.5-.225s.352,1.382-.356,2.15a5.537,5.537,0,0,1-2.032,1.332l.811.747a6.31,6.31,0,0,0,1.995-1.445c1.188-1.29,1.312-2.674.262-3.642-.921-.85-1.927-.718-3.439.066-1.335.712-1.969.681-2.472.217-.546-.5-.4-1.348.3-2.107a4.747,4.747,0,0,1,1.727-1.155l-.777-.716a5.356,5.356,0,0,0-1.724,1.237c-1.085,1.178-1.282,2.607-.24,3.567C3051.886,4622.134,3052.9,4622.043,3054.4,4621.244Z" transform="translate(-3050.261 -4616.465)"/></g><g transform="translate(15.399 16.569)"><path d="M3065.079,4602.444l4.864,5.6.841-.731-4.864-5.6,1.927-1.675-.617-.709-4.687,4.072.617.71Z" transform="translate(-3062.544 -4599.329)"/></g><g transform="translate(24.354 13.288)"><path d="M3088.847,4599.176l-.386-1.989,3.066-2.116,1.733,1.06.974-.672-8-4.8-.019.013,1.653,9.181Zm1.825-4.629-2.4,1.654c-.257-1.374-.471-2.438-.761-3.677C3088.559,4593.242,3089.479,4593.819,3090.673,4594.547Z" transform="translate(-3086.22 -4590.655)"/></g><g transform="translate(30.607 9.04)"><g transform="translate(0 0)"><g transform="translate(0)"><rect width="1.114" height="8.357" transform="translate(0 0.535) rotate(-28.706)"/></g></g></g><g transform="translate(35.553 4.447)"><path d="M3120.09,4577.091l-2.2-5.346.357.167,6.94,3.233.01,0-3.231-7.858-1.031.424,2.2,5.346-.357-.167-6.94-3.233-.011,0,3.232,7.857Z" transform="translate(-3115.827 -4567.282)"/></g><g transform="translate(47.198 2.184)"><path d="M3148.1,4568.193l3.613-.909,1.253,1.6,1.148-.29-5.811-7.3-.022.005-1.662,9.179,1.148-.289Zm.744-4.7c.729,1.038,1.388,1.9,2.251,3l-2.824.711C3148.507,4565.828,3148.68,4564.755,3148.841,4563.494Z" transform="translate(-3146.615 -4561.297)"/></g><g transform="translate(56.185 0.498)"><path d="M3174.178,4565.138c1.649-.189,2.649-1.251,2.487-2.657a2.151,2.151,0,0,0-1.6-1.861,1.838,1.838,0,0,0,.846-1.791c-.164-1.418-1.346-2.147-2.983-1.959l-2.549.293.956,8.3Zm1.351-2.574a1.468,1.468,0,0,1-1.42,1.671l-1.81.208-.339-2.94,2.029-.233A1.338,1.338,0,0,1,3175.529,4562.564Zm-2.422-4.8a1.382,1.382,0,0,1,1.675,1.256,1.219,1.219,0,0,1-.719,1.368l-2.2.253-.311-2.7Z" transform="translate(-3170.374 -4556.841)"/></g><g transform="translate(65.826 0)"><path d="M3200.592,4563.018l-3.6-.059.122-7.417-1.114-.018-.137,8.356,4.712.078Z" transform="translate(-3195.865 -4555.523)"/></g><g transform="translate(72.232 0.094)"><path d="M3214.895,4564.405l1.108.121.359-3.3,3.545-4.68-1.234-.135-2.75,3.692-1.888-4.2-1.234-.135,2.454,5.334Z" transform="translate(-3212.801 -4555.771)"/></g><g transform="translate(83.901 2.764)"><path d="M3249.212,4569.806c.349-1.2-.217-2.045-1.594-3.049-1.232-.877-1.487-1.458-1.3-2.116.207-.713,1.028-.959,2.02-.671a4.754,4.754,0,0,1,1.8,1.03l.294-1.014a5.349,5.349,0,0,0-1.876-.992c-1.539-.446-2.906.016-3.3,1.376-.355,1.227.179,2.095,1.562,3.076,1.214.859,1.532,1.387,1.316,2.134s-1.08.931-2.083.64a5.537,5.537,0,0,1-2.1-1.224l-.307,1.059a6.322,6.322,0,0,0,2.183,1.141C3247.52,4571.685,3248.814,4571.178,3249.212,4569.806Z" transform="translate(-3243.652 -4562.83)"/></g><g transform="translate(92.416 6.102)"><path d="M3268.711,4579.927a4.319,4.319,0,1,0-2.145-5.692A4.224,4.224,0,0,0,3268.711,4579.927Zm-1.117-5.232a3.155,3.155,0,1,1,1.54,4.289A3.134,3.134,0,0,1,3267.593,4574.694Z" transform="translate(-3266.164 -4571.656)"/></g><g transform="translate(102.3 10.343)"><path d="M3293.91,4591.75a2.9,2.9,0,0,0,4.373-.826l2.944-4.564-.937-.6-2.9,4.5a2.107,2.107,0,1,1-3.541-2.284l2.9-4.5-.936-.6-2.944,4.565A2.891,2.891,0,0,0,3293.91,4591.75Z" transform="translate(-3292.297 -4582.868)"/></g><g transform="translate(109.399 16.574)"><path d="M3311.911,4606.413l2.131-2.485,1.322,1.133-.818,3.612.943.808.815-3.857a2.4,2.4,0,0,0,2.822-.67c1.042-1.216.825-2.657-.568-3.851l-2.053-1.76-5.439,6.346Zm4.828-5.631,1.181,1.012a1.606,1.606,0,0,1,.36,2.434,1.557,1.557,0,0,1-2.389.077l-1.252-1.072Z" transform="translate(-3311.065 -4599.342)"/></g><g transform="translate(117.123 24.389)"><path d="M3332.679,4627.3a5.378,5.378,0,0,0,2.137,1.5l.787-.7a5.564,5.564,0,0,1-2.155-1.483,3.285,3.285,0,0,1,4.894-4.384,5.492,5.492,0,0,1,1.191,2.269l.786-.706a5.247,5.247,0,0,0-1.208-2.253,4.319,4.319,0,1,0-6.432,5.763Z" transform="translate(-3331.488 -4620.006)"/></g><g transform="translate(121.801 31.015)"><path d="M3346.862,4646.631l.775-.533-2.375-3.452,2.324-1.6,1.921,2.793.775-.533-1.921-2.792,2.238-1.541,2.276,3.309.775-.533-2.908-4.227-6.886,4.737Z" transform="translate(-3343.855 -4637.523)"/></g><g transform="translate(126.32 38.872)"><path d="M3363.257,4658.3l-7.455,3.777,1.107,2.185c1.2,2.37,3.489,3.189,5.726,2.057s2.92-3.484,1.708-5.875Zm-1.136,7a3.091,3.091,0,0,1-4.378-1.477l-.6-1.181,5.777-2.927.577,1.139A3.11,3.11,0,0,1,3362.121,4665.3Z" transform="translate(-3355.802 -4658.296)"/></g><g transform="translate(5.966 13.622)"><path d="M3099.112,4591.538a61.507,61.507,0,1,0,61.508,61.507A61.577,61.577,0,0,0,3099.112,4591.538Zm0,121.5a59.995,59.995,0,1,1,59.995-60A60.063,60.063,0,0,1,3099.112,4713.04Z" transform="translate(-3037.604 -4591.538)"/></g><g transform="translate(45.508 39.804)"><path d="M3185.648,4681.187l-.1-.469-.47-.1a7.188,7.188,0,1,1-12.342-4.659,17.624,17.624,0,0,0-8.214-14.937l-.406-.258-.406.258a14.262,14.262,0,0,1-20.556,19.6l-.47.1-.1.469a9.723,9.723,0,1,1,.574,18.443l-.47.1-.1.47a17.691,17.691,0,0,0,17.231,21.553,17.831,17.831,0,0,0,3.549-.363v12.916a.757.757,0,1,0,1.513,0v-12.916a17.827,17.827,0,0,0,3.549.363,17.691,17.691,0,0,0,17.23-21.553l-.1-.47-.47-.1a3.434,3.434,0,1,1-4.18-2.072A17.625,17.625,0,0,0,3185.648,4681.187Zm-21.536-18.627a16.174,16.174,0,1,1-7.107,13.394A16.113,16.113,0,0,1,3164.113,4662.56Zm-20.157,19.432a16.173,16.173,0,1,1,4.445,14.5A16.106,16.106,0,0,1,3143.955,4681.992Zm18.941,37.958a16.174,16.174,0,1,1-4.445-14.5A16.111,16.111,0,0,1,3162.9,4719.949Zm-3.375-15.565a17.843,17.843,0,0,0-2.134-1.813,17.6,17.6,0,0,0,2.421.17,17.937,17.937,0,0,0,3.548-.362v7.737A17.684,17.684,0,0,0,3159.521,4704.384Zm24.749-3.376a16.174,16.174,0,1,1-14.5,4.445A16.112,16.112,0,0,1,3184.27,4701.008Zm-15.566,3.376a17.684,17.684,0,0,0-3.835,5.732v-7.737a17.935,17.935,0,0,0,3.548.363,1.407,1.407,0,1,1,.287,1.643Zm-3.376-3.451a16.173,16.173,0,1,1,14.5-4.445A16.111,16.111,0,0,1,3165.329,4700.933Z" transform="translate(-3142.147 -4660.759)"/></g></g><g transform="translate(740.584 0.001)"><g transform="translate(0 37.509)"><path d="M3483.773,4660.05c.806-1.451.525-2.882-.712-3.57a2.15,2.15,0,0,0-2.447.221,1.838,1.838,0,0,0-.964-1.731c-1.248-.693-2.529-.156-3.329,1.284l-1.246,2.243,7.3,4.06Zm-7.383-2.058.761-1.369a1.382,1.382,0,0,1,2-.63,1.22,1.22,0,0,1,.693,1.381l-1.077,1.938Zm3.136,1.743.992-1.786a1.339,1.339,0,0,1,1.949-.5,1.468,1.468,0,0,1,.531,2.128l-.885,1.592Z" transform="translate(-3475.075 -4654.669)"/></g><g transform="translate(5.01 29.385)"><path d="M3495.7,4640.817l-2.632-1.945,1.034-1.4,3.66.555.738-1-3.905-.534a2.4,2.4,0,0,0-.871-2.765c-1.288-.952-2.708-.631-3.8.844l-1.607,2.174,6.719,4.966Zm-5.964-4.407.924-1.25a1.606,1.606,0,0,1,2.4-.535,1.557,1.557,0,0,1,.249,2.377l-.979,1.326Z" transform="translate(-3488.32 -4633.188)"/></g><g transform="translate(12.333 21.143)"><path d="M3515.073,4618.763a4.318,4.318,0,1,0-6.082,0A4.224,4.224,0,0,0,3515.073,4618.763Zm-5.4-5.35a3.287,3.287,0,1,1,.113,4.555A3.124,3.124,0,0,1,3509.671,4613.413Z" transform="translate(-3507.68 -4611.4)"/></g><g transform="translate(21.716 15.293)"><path d="M3535.493,4604.332l-.474-1.971,2.97-2.251,1.779.983.943-.715-8.2-4.444-.018.015,2.061,9.1Zm1.617-4.708-2.321,1.76c-.319-1.361-.579-2.416-.925-3.64C3534.94,4598.414,3535.886,4598.951,3537.11,4599.625Z" transform="translate(-3532.488 -4595.933)"/></g><g transform="translate(27.949 9.282)"><path d="M3555.179,4588c2.321-1.3,3.047-3.615,1.825-5.8s-3.6-2.777-5.938-1.472l-2.1,1.172,4.073,7.3Zm-3.665-6.448a3.239,3.239,0,1,1,3.2,5.633l-1.155.645-3.156-5.656Z" transform="translate(-3548.968 -4580.041)"/></g><g transform="translate(41.393 3.55)"><path d="M3587.671,4569.808c1.487.013,2.05.264,2.3,1s-.355,1.381-1.345,1.716a5.543,5.543,0,0,1-2.423.192l.353,1.044a6.318,6.318,0,0,0,2.443-.31c1.662-.56,2.436-1.716,1.979-3.069-.4-1.187-1.345-1.555-3.05-1.593-1.512-.017-2.053-.349-2.271-1-.238-.7.3-1.375,1.275-1.7a4.76,4.76,0,0,1,2.07-.184l-.337-1a5.343,5.343,0,0,0-2.107.258c-1.518.512-2.376,1.671-1.923,3.013C3585.042,4569.385,3585.975,4569.793,3587.671,4569.808Z" transform="translate(-3584.512 -4564.885)"/></g><g transform="translate(49.634 1.529)"><path d="M3609.106,4568.112l-.667-3.181,1.42-.3c1.738-.365,2.587-1.516,2.259-3.083s-1.569-2.279-3.308-1.915l-2.51.526,1.716,8.178Zm-.137-7.549a1.543,1.543,0,0,1,2.034,1.221,1.5,1.5,0,0,1-1.281,1.917l-1.476.31-.663-3.158Z" transform="translate(-3606.3 -4559.542)"/></g><g transform="translate(58.818 0.082)"><path d="M3636.57,4564.029l-.079-.937-4.175.353-.237-2.811,3.377-.285-.079-.937-3.377.285-.228-2.707,4-.337-.079-.937-5.112.431.7,8.328Z" transform="translate(-3630.582 -4555.716)"/></g><g transform="translate(67.049 0)"><path d="M3656.574,4564.135a5.384,5.384,0,0,0,2.564-.492l.041-1.056a5.562,5.562,0,0,1-2.565.516,3.286,3.286,0,0,1,.258-6.566,5.481,5.481,0,0,1,2.458.724l.042-1.056a5.257,5.257,0,0,0-2.459-.7,4.32,4.32,0,1,0-.339,8.631Z" transform="translate(-3652.343 -4555.5)"/></g><g transform="translate(77.129 0.597)"><path d="M3680.26,4565.744l1.1.186,1.239-7.313,2.518.427.157-.927-6.123-1.038-.157.927,2.507.424Z" transform="translate(-3678.992 -4557.079)"/></g><g transform="translate(84.542 2.496)"><path d="M3700.6,4567.288l1.667.5.715,3.632,1.189.357-.818-3.856a2.4,2.4,0,0,0,2.308-1.755c.46-1.534-.323-2.762-2.079-3.289l-2.59-.777-2.4,8,1.067.32Zm1.191-3.969,1.49.447c1.111.333,1.6,1.111,1.314,2.079a1.557,1.557,0,0,1-2.153,1.038l-1.578-.474Z" transform="translate(-3698.591 -4562.098)"/></g><g transform="translate(93.568 5.544)"><path d="M3724.446,4579.221a2.9,2.9,0,0,0,4.209-1.445l2.258-4.94-1.014-.463-2.224,4.866a2.107,2.107,0,1,1-3.832-1.751l2.224-4.866-1.013-.463-2.258,4.939A2.892,2.892,0,0,0,3724.446,4579.221Z" transform="translate(-3722.456 -4570.158)"/></g><g transform="translate(101.519 10.324)"><path d="M3744.379,4590.482l3.08-4.671.038.345.416,3.9,3.761-1.149.331-.1-3.08,4.671.9.594,4.677-7.093-.01-.006-5.717,1.778-.61-5.95-.01-.006-4.676,7.093Z" transform="translate(-3743.478 -4582.794)"/></g><g transform="translate(114.585 21.535)"><path d="M3781.593,4621.279l.748-.746a5.554,5.554,0,0,1-2.232-1.364,3.285,3.285,0,0,1,4.649-4.642,5.487,5.487,0,0,1,1.311,2.2l.748-.746a5.245,5.245,0,0,0-1.328-2.184,4.318,4.318,0,1,0-6.11,6.1A5.369,5.369,0,0,0,3781.593,4621.279Z" transform="translate(-3778.022 -4612.437)"/></g><g transform="translate(119.646 27.777)"><path d="M3793.146,4636.3c1.009,1.318,2.434,1.631,3.558.771a2.15,2.15,0,0,0,.773-2.333,1.838,1.838,0,0,0,1.972-.194c1.134-.869,1.152-2.256.15-3.565l-1.56-2.037-6.636,5.082Zm4.831-5.951.952,1.244a1.382,1.382,0,0,1-.218,2.083,1.221,1.221,0,0,1-1.543.085l-1.348-1.76Zm-1.606,3.8a1.339,1.339,0,0,1-.322,1.986,1.468,1.468,0,0,1-2.163-.361l-1.108-1.447,2.349-1.8Z" transform="translate(-3791.403 -4628.938)"/></g><g transform="translate(124.761 35.742)"><path d="M3813.377,4652.084l-1.188-2.088-7.263,4.13,1.21,2.128c1.313,2.31,3.638,3.018,5.818,1.779S3814.7,4654.415,3813.377,4652.084Zm-1.986,4.961a3.092,3.092,0,0,1-4.444-1.265l-.655-1.151,5.63-3.2.631,1.11A3.111,3.111,0,0,1,3811.391,4657.046Z" transform="translate(-3804.925 -4649.997)"/></g><g transform="translate(6.08 13.639)"><path d="M3552.656,4591.559a61.508,61.508,0,1,0,61.508,61.508A61.577,61.577,0,0,0,3552.656,4591.559Zm0,121.5a59.994,59.994,0,1,1,60-59.994A60.062,60.062,0,0,1,3552.656,4713.061Z" transform="translate(-3491.149 -4591.559)"/></g><g transform="translate(34.42 49.689)"><path d="M3616.03,4687.544l-.574-.672-.576.671a115.947,115.947,0,0,0-7.548,10.118,115.961,115.961,0,0,0-7.506-10.117l-.574-.672-.576.671a115.6,115.6,0,0,0-7.549,10.118,115.883,115.883,0,0,0-7.507-10.117l-.574-.672-.576.671a116.121,116.121,0,0,0-8.359,11.358c-5.544,8.621-8.243,15.636-8.021,20.852a16.439,16.439,0,0,0,5.372,12.481,17.754,17.754,0,0,0,10.95,4.484c.231,0,.444-.01.639-.027a16.435,16.435,0,0,0,8.066-2.062,16.978,16.978,0,0,0,7.5,2.09c.231,0,.445-.01.639-.027a16.439,16.439,0,0,0,8.066-2.062,16.984,16.984,0,0,0,7.5,2.089c.231,0,.444-.01.639-.027a17.528,17.528,0,0,0,11.577-4.491,16.451,16.451,0,0,0,5.369-12.447c.141-5.266-2.582-12.3-8.093-20.9A116.138,116.138,0,0,0,3616.03,4687.544Zm-16.782,1.675a118.869,118.869,0,0,1,7.175,9.837c-3.675,5.736-6.081,10.757-7.2,15.007-1.142-4.264-3.546-9.285-7.192-15.005A118.6,118.6,0,0,1,3599.249,4689.22Zm8.08,11.251c3.856,6.147,7.513,13.529,7.359,19.247a14.994,14.994,0,0,1-4.868,11.356,15.76,15.76,0,0,1-2.5,1.82,15.949,15.949,0,0,1-2.445-1.789,14.772,14.772,0,0,1-4.866-11.379v-.025C3599.767,4714.035,3603.439,4706.639,3607.329,4700.471Zm-8.846,19.247a15,15,0,0,1-4.868,11.356,15.644,15.644,0,0,1-2.5,1.819,15.93,15.93,0,0,1-2.446-1.788,14.775,14.775,0,0,1-4.866-11.379v-.025c-.245-5.666,3.426-13.062,7.316-19.229C3594.979,4706.618,3598.636,4714,3598.483,4719.718Zm-15.372,15.46-.073-.006-.073.007a15.769,15.769,0,0,1-10.5-4.075,14.777,14.777,0,0,1-4.866-11.379v-.025c-.455-10.49,12.522-26.924,15.441-30.48a118.84,118.84,0,0,1,7.176,9.837c-5.476,8.549-8.143,15.512-7.923,20.7a16.438,16.438,0,0,0,5.371,12.481,17.356,17.356,0,0,0,1.908,1.469A14.544,14.544,0,0,1,3583.111,4735.178Zm16.205,0-.072-.006-.073.007a14.138,14.138,0,0,1-6.509-1.469,17.02,17.02,0,0,0,1.963-1.51,5.129,5.129,0,1,1,9.246.034,17.182,17.182,0,0,0,1.909,1.469A14.545,14.545,0,0,1,3599.316,4735.178Zm26.71-4.1a16.043,16.043,0,0,1-10.505,4.1l-.072-.006-.073.007a14.138,14.138,0,0,1-6.509-1.469,17.03,17.03,0,0,0,1.964-1.51,16.446,16.446,0,0,0,5.37-12.447c.14-5.223-2.542-12.187-7.964-20.695a118.517,118.517,0,0,1,7.217-9.838c2.9,3.547,15.724,19.886,15.44,30.5A15,15,0,0,1,3626.026,4731.074Z" transform="translate(-3566.077 -4686.872)"/></g></g></g></svg>